<?xml version="1.0" encoding="UTF-8" standalone="no"?>
<!-- Created with Inkscape (http://www.inkscape.org/) -->

<svg
   xmlns:dc="http://purl.org/dc/elements/1.1/"
   xmlns:cc="http://creativecommons.org/ns#"
   xmlns:rdf="http://www.w3.org/1999/02/22-rdf-syntax-ns#"
   xmlns:svg="http://www.w3.org/2000/svg"
   xmlns="http://www.w3.org/2000/svg"
   xmlns:sodipodi="http://sodipodi.sourceforge.net/DTD/sodipodi-0.dtd"
   xmlns:inkscape="http://www.inkscape.org/namespaces/inkscape"
   inkscape:version="0.91 r13725"
   version="1.1"
   id="svg2"
   viewBox="0 0 744.09448819 1052.3622047"
   height="297mm"
   width="210mm"
   sodipodi:docname="Ex11_Henrique_Simbolo_da_Escola.svg"
   inkscape:export-filename="/home/henriquerc_18/Documentos/Representacao_Grafica/Ex11_Henrique_Simbolo_da_Escola.png"
   inkscape:export-xdpi="90"
   inkscape:export-ydpi="90">
  <sodipodi:namedview
     inkscape:window-maximized="1"
     inkscape:window-y="0"
     inkscape:window-x="0"
     inkscape:window-height="718"
     inkscape:window-width="1360"
     showgrid="false"
     inkscape:current-layer="svg2"
     inkscape:document-units="px"
     inkscape:cy="689.06187"
     inkscape:cx="67.979235"
     inkscape:zoom="1.0148597"
     inkscape:pageshadow="2"
     inkscape:pageopacity="0.0"
     borderopacity="1.0"
     bordercolor="#666666"
     pagecolor="#ffffff"
     id="base" />
  <defs
     id="defs4" />
  <metadata
     id="metadata7">
    <rdf:RDF>
      <cc:Work
         rdf:about="">
        <dc:format>image/svg+xml</dc:format>
        <dc:type
           rdf:resource="http://purl.org/dc/dcmitype/StillImage" />
        <dc:title />
      </cc:Work>
    </rdf:RDF>
  </metadata>
  <g
     inkscape:label="Camada 1"
     inkscape:groupmode="layer"
     id="layer1" />
  <path
     inkscape:connector-curvature="0"
     d="m 454.64418,400.87191 11.12909,-1.11628 1.55781,0.0274 13.06626,3.9948 0,11.97828 -13.06626,3.9948 -1.55781,0.0274 -11.12909,-1.11628 -3.3465,16.82401 10.70911,3.22761 1.42875,0.62146 10.5429,8.69096 -4.58389,11.06649 -13.60039,-1.30952 -1.44972,-0.57084 -9.85475,-5.29022 -9.53004,14.26271 8.65878,7.08012 1.08217,1.12092 6.41449,12.06399 -8.46993,8.46993 -12.06399,-6.41449 -1.12092,-1.08217 -7.08012,-8.65878 -14.26271,9.53004 5.29022,9.85475 0.57084,1.44972 1.30952,13.60039 -11.06649,4.58389 -8.69096,-10.5429 -0.62146,-1.42875 -3.22761,-10.70911 -16.82401,3.3465 1.11628,11.12909 -0.0274,1.55781 -3.9948,13.06626 -11.97828,0 -3.9948,-13.06626 -0.0274,-1.55781 1.11628,-11.12909 -16.82401,-3.3465 -3.22761,10.70911 -0.62146,1.42875 -8.69096,10.5429 -11.06649,-4.58389 1.30952,-13.60039 0.57084,-1.44972 5.29022,-9.85475 -14.26271,-9.53004 -7.08012,8.65878 -1.12092,1.08217 -12.06399,6.41449 -8.46993,-8.46993 6.41449,-12.06399 1.08217,-1.12092 8.65878,-7.08012 -9.53004,-14.26271 -9.85475,5.29022 -1.44972,0.57084 -13.60039,1.30952 -4.58389,-11.06649 10.5429,-8.69096 1.42875,-0.62146 10.70911,-3.22761 -3.3465,-16.82401 -11.12909,1.11628 -1.55781,-0.0274 -13.06626,-3.9948 0,-11.97828 13.06626,-3.9948 1.55781,-0.0274 11.12909,1.11628 3.3465,-16.82401 -10.70911,-3.22761 -1.42875,-0.62146 -10.5429,-8.69096 4.58389,-11.06649 13.60039,1.30952 1.44972,0.57084 9.85475,5.29022 9.53004,-14.26271 -8.65878,-7.08012 -1.08217,-1.12092 -6.41449,-12.06399 8.46993,-8.46993 12.06399,6.41449 1.12092,1.08217 7.08012,8.65878 14.26271,-9.53004 -5.29022,-9.85475 -0.57084,-1.44972 -1.30952,-13.60039 11.06649,-4.58389 8.69096,10.5429 0.62146,1.42875 3.22761,10.70911 16.82401,-3.3465 -1.11628,-11.12909 0.0274,-1.55781 3.9948,-13.06626 11.97828,0 3.9948,13.06626 0.0274,1.55781 -1.11628,11.12909 16.82401,3.3465 3.22761,-10.70911 0.62146,-1.42875 8.69096,-10.5429 11.06649,4.58389 -1.30952,13.60039 -0.57084,1.44972 -5.29022,9.85475 14.26271,9.53004 7.08012,-8.65878 1.12092,-1.08217 12.06399,-6.41449 8.46993,8.46993 -6.41449,12.06399 -1.08217,1.12092 -8.65878,7.08012 9.53004,14.26271 9.85475,-5.29022 1.44972,-0.57084 13.60039,-1.30952 4.58389,11.06649 -10.5429,8.69096 -1.42875,0.62146 -10.70911,3.22761 z"
     style="fill:#ffff00;stroke:#000000;stroke-width:1"
     id="path4022" />
  <circle
     r="70"
     cy="410.18539"
     cx="366.55417"
     style="fill:#ffffff;stroke:#000000;stroke-width:1"
     id="path4024" />
  <path
     style="fill:#ff0000"
     inkscape:transform-center-x="-24.092749"
     inkscape:transform-center-y="-20.218537"
     d="m 320.3323,357.29253 21.8944,0.0192 21.8944,0.0192 -0.11693,11.75388 0.33835,13.89939 -26.55798,-15.42044 z"
     id="path4039"
     inkscape:connector-curvature="0"
     sodipodi:nodetypes="ccccccc" />
  <path
     style="fill:#ff0000"
     inkscape:transform-center-x="23.968054"
     inkscape:transform-center-y="-19.830407"
     d="m 412.42053,357.5005 -21.78109,0.0187 -21.78109,0.0188 0.11634,11.19334 0.36577,14.63704 25.71815,-15.79405 z"
     id="path4039-3"
     inkscape:connector-curvature="0"
     sodipodi:nodetypes="ccccccc" />
  <path
     sodipodi:nodetypes="ccccccc"
     inkscape:connector-curvature="0"
     id="path4062"
     d="m 410.63964,463.85251 -20.564,0.20787 -20.56401,0.20776 0.0165,-11.34482 0.22324,-14.83733 24.41253,15.73826 z"
     inkscape:transform-center-y="20.551506"
     inkscape:transform-center-x="22.355662"
     style="fill:#ff0000" />
  <path
     style="fill:#ff0000"
     inkscape:transform-center-x="-23.968054"
     inkscape:transform-center-y="19.029257"
     d="m 321.47914,463.84326 21.78109,-0.0179 21.78109,-0.018 -0.11634,-10.7411 -0.36577,-14.04566 -25.71815,15.15593 z"
     id="path4064"
     inkscape:connector-curvature="0"
     sodipodi:nodetypes="ccccccc" />
  <path
     sodipodi:nodetypes="ccccccc"
     inkscape:connector-curvature="0"
     id="path4066"
     d="m 350.54937,413.99151 -22.65203,0.022 -22.65203,0.0221 0.12099,13.15305 0.38039,17.19966 26.74652,-18.55924 z"
     inkscape:transform-center-y="-23.302266"
     inkscape:transform-center-x="24.926444"
     style="fill:#ff0000" />
  <path
     style="fill:#ff0000"
     inkscape:transform-center-x="24.926442"
     inkscape:transform-center-y="26.774159"
     d="m 350.54938,411.93515 -22.65203,-0.0252 -22.65204,-0.0254 0.12094,-15.11276 0.3804,-19.76228 26.74651,21.32443 z"
     id="path4068"
     inkscape:connector-curvature="0"
     sodipodi:nodetypes="ccccccc" />
  <path
     sodipodi:nodetypes="ccccccc"
     inkscape:connector-curvature="0"
     id="path4070"
     d="m 381.22644,411.2384 22.65203,-0.0252 22.65204,-0.0254 -0.12094,-15.11276 -0.3804,-19.76228 -26.74651,21.32443 z"
     inkscape:transform-center-y="26.774159"
     inkscape:transform-center-x="-24.926438"
     style="fill:#ff0000" />
  <path
     style="fill:#ff0000"
     inkscape:transform-center-x="-24.926438"
     inkscape:transform-center-y="-26.774155"
     d="m 380.87806,413.24064 22.65203,0.0252 22.65204,0.0254 -0.12094,15.11276 -0.3804,19.76228 -26.74651,-21.32443 z"
     id="path4072"
     inkscape:connector-curvature="0"
     sodipodi:nodetypes="ccccccc" />
  <ellipse
     style="fill:#ff0000"
     id="path4074"
     cx="365.09869"
     cy="408.73639"
     rx="37.973053"
     ry="34.663475" />
  <ellipse
     style="fill:#0000ff"
     id="path4095"
     cx="364.75034"
     cy="408.38803"
     rx="29.263636"
     ry="26.999187" />
  <path
     sodipodi:type="star"
     style="fill:#ffffff"
     id="path4120"
     sodipodi:sides="5"
     sodipodi:cx="357.64209"
     sodipodi:cy="398.61084"
     sodipodi:r1="13.742122"
     sodipodi:r2="5.8703871"
     sodipodi:arg1="1.0390723"
     sodipodi:arg2="1.6673908"
     inkscape:flatsided="false"
     inkscape:rounded="0"
     inkscape:randomized="0"
     d="m 364.60962,410.45565 -7.5337,-6.00179 -8.54582,4.44374 3.37999,-9.01962 -6.86705,-6.75438 9.62265,0.42735 4.30175,-8.61817 2.56713,9.28374 9.52568,1.42805 -8.03607,5.31032 z"
     transform="matrix(0.16678743,0,0,0.16030067,301.53554,324.33631)" />
  <path
     transform="matrix(0.18809116,0,0,0.18201703,314.63102,326.44639)"
     d="m 364.60962,410.45565 -7.5337,-6.00179 -8.54582,4.44374 3.37999,-9.01962 -6.86705,-6.75438 9.62265,0.42735 4.30175,-8.61817 2.56713,9.28374 9.52568,1.42805 -8.03607,5.31032 z"
     inkscape:randomized="0"
     inkscape:rounded="0"
     inkscape:flatsided="false"
     sodipodi:arg2="1.6673908"
     sodipodi:arg1="1.0390723"
     sodipodi:r2="5.8703871"
     sodipodi:r1="13.742122"
     sodipodi:cy="398.61084"
     sodipodi:cx="357.64209"
     sodipodi:sides="5"
     id="path4124"
     style="fill:#ffffff"
     sodipodi:type="star" />
  <path
     transform="matrix(0.1573191,0,0,0.1627136,289.77582,347.05608)"
     d="m 364.60962,410.45565 -7.5337,-6.00179 -8.54582,4.44374 3.37999,-9.01962 -6.86705,-6.75438 9.62265,0.42735 4.30175,-8.61817 2.56713,9.28374 9.52568,1.42805 -8.03607,5.31032 z"
     inkscape:randomized="0"
     inkscape:rounded="0"
     inkscape:flatsided="false"
     sodipodi:arg2="1.6673908"
     sodipodi:arg1="1.0390723"
     sodipodi:r2="5.8703871"
     sodipodi:r1="13.742122"
     sodipodi:cy="398.61084"
     sodipodi:cx="357.64209"
     sodipodi:sides="5"
     id="path4126"
     style="fill:#ffffff"
     sodipodi:type="star" />
  <path
     sodipodi:type="star"
     style="fill:#ffffff"
     id="path4128"
     sodipodi:sides="5"
     sodipodi:cx="357.64209"
     sodipodi:cy="398.61084"
     sodipodi:r1="13.742122"
     sodipodi:r2="5.8703871"
     sodipodi:arg1="1.0390723"
     sodipodi:arg2="1.6673908"
     inkscape:flatsided="false"
     inkscape:rounded="0"
     inkscape:randomized="0"
     d="m 364.60962,410.45565 -7.5337,-6.00179 -8.54582,4.44374 3.37999,-9.01962 -6.86705,-6.75438 9.62265,0.42735 4.30175,-8.61817 2.56713,9.28374 9.52568,1.42805 -8.03607,5.31032 z"
     transform="matrix(0.1573191,0,0,0.1627136,326.20236,360.61319)"
     inkscape:transform-center-x="2.264448"
     inkscape:transform-center-y="-5.2256271" />
  <path
     inkscape:transform-center-y="-2.9397957"
     inkscape:transform-center-x="1.35992"
     transform="matrix(0.09447848,0,0,0.09153828,323.06325,366.84703)"
     d="m 364.60962,410.45565 -7.5337,-6.00179 -8.54582,4.44374 3.37999,-9.01962 -6.86705,-6.75438 9.62265,0.42735 4.30175,-8.61817 2.56713,9.28374 9.52568,1.42805 -8.03607,5.31032 z"
     inkscape:randomized="0"
     inkscape:rounded="0"
     inkscape:flatsided="false"
     sodipodi:arg2="1.6673908"
     sodipodi:arg1="1.0390723"
     sodipodi:r2="5.8703871"
     sodipodi:r1="13.742122"
     sodipodi:cy="398.61084"
     sodipodi:cx="357.64209"
     sodipodi:sides="5"
     id="path4130"
     style="fill:#ffffff"
     sodipodi:type="star" />
  <rect
     style="fill:#ff0000"
     id="rect4138"
     width="9.1145601"
     height="4.9267888"
     x="324.92175"
     y="394.63577" />
  <rect
     y="373.45056"
     x="350.54105"
     height="4.9267888"
     width="9.1145601"
     id="rect4140"
     style="fill:#ff0000" />
  <rect
     style="fill:#ff0000"
     id="rect4142"
     width="9.1145601"
     height="4.9267888"
     x="373.53391"
     y="373.10217" />
  <rect
     y="395.39828"
     x="397.5719"
     height="4.9267888"
     width="9.1145601"
     id="rect4144"
     style="fill:#ff0000" />
  <rect
     style="fill:#ff0000"
     id="rect4146"
     width="9.1145601"
     height="4.9267888"
     x="394.78488"
     y="422.57166" />
  <rect
     y="440.44818"
     x="372.03833"
     height="3.9414308"
     width="6.4048262"
     id="rect4148"
     style="fill:#ff0000" />
  <rect
     style="fill:#ff0000"
     id="rect4150"
     width="7.0243006"
     height="3.881659"
     x="355.41833"
     y="441.384" />
  <rect
     y="423.2684"
     x="328.94171"
     height="3.881659"
     width="7.0243006"
     id="rect4152"
     style="fill:#ff0000" />
</svg>
