<?xml version="1.0" encoding="UTF-8" standalone="no"?>
<!-- Created with Inkscape (http://www.inkscape.org/) -->

<svg
   xmlns:dc="http://purl.org/dc/elements/1.1/"
   xmlns:cc="http://creativecommons.org/ns#"
   xmlns:rdf="http://www.w3.org/1999/02/22-rdf-syntax-ns#"
   xmlns:svg="http://www.w3.org/2000/svg"
   xmlns="http://www.w3.org/2000/svg"
   xmlns:xlink="http://www.w3.org/1999/xlink"
   xmlns:sodipodi="http://sodipodi.sourceforge.net/DTD/sodipodi-0.dtd"
   xmlns:inkscape="http://www.inkscape.org/namespaces/inkscape"
   width="78.136902mm"
   height="87.270691mm"
   viewBox="0 0 276.86304 309.22686"
   id="svg2"
   version="1.1"
   inkscape:version="0.91 r13725"
   sodipodi:docname="Ex14_Henrique_Esfera_e_Texto.svg">
  <defs
     id="defs4">
    <linearGradient
       inkscape:collect="always"
       id="linearGradient4213">
      <stop
         style="stop-color:#f2f2f2;stop-opacity:1;"
         offset="0"
         id="stop4215" />
      <stop
         style="stop-color:#f2f2f2;stop-opacity:0;"
         offset="1"
         id="stop4217" />
    </linearGradient>
    <linearGradient
       inkscape:collect="always"
       id="linearGradient4252">
      <stop
         style="stop-color:#ffffff;stop-opacity:1"
         offset="0"
         id="stop4254" />
      <stop
         style="stop-color:#000000;stop-opacity:0;"
         offset="1"
         id="stop4256" />
    </linearGradient>
    <radialGradient
       inkscape:collect="always"
       xlink:href="#linearGradient4252"
       id="radialGradient4258"
       cx="366.60626"
       cy="701.12201"
       fx="366.60626"
       fy="701.12201"
       r="115.4661"
       gradientTransform="matrix(2.7822218,3.2967134,-2.8041873,2.3665601,1264.4438,-2475.4864)"
       gradientUnits="userSpaceOnUse" />
    <radialGradient
       inkscape:collect="always"
       xlink:href="#linearGradient4213"
       id="radialGradient4219"
       cx="354.70288"
       cy="396.01205"
       fx="354.70288"
       fy="396.01205"
       r="70.137047"
       gradientTransform="matrix(-4.1330056,-3.229183,3.6116935,-4.6225778,412.24873,3358.5666)"
       gradientUnits="userSpaceOnUse" />
    <filter
       inkscape:collect="always"
       style="color-interpolation-filters:sRGB"
       id="filter4637"
       x="-0.22054376"
       width="1.4410875"
       y="-0.15204816"
       height="1.3040963">
      <feGaussianBlur
         inkscape:collect="always"
         stdDeviation="12.89024"
         id="feGaussianBlur4639" />
    </filter>
    <filter
       inkscape:collect="always"
       style="color-interpolation-filters:sRGB"
       id="filter4808"
       x="-0.038260434"
       width="1.0765209"
       y="-0.033991762"
       height="1.0679835">
      <feGaussianBlur
         inkscape:collect="always"
         stdDeviation="2.9482763"
         id="feGaussianBlur4810" />
    </filter>
    <filter
       inkscape:collect="always"
       style="color-interpolation-filters:sRGB"
       id="filter5137"
       x="-0.21859081"
       width="1.4371816"
       y="-0.37430486"
       height="1.7486097">
      <feGaussianBlur
         inkscape:collect="always"
         stdDeviation="6.3486348"
         id="feGaussianBlur5139" />
    </filter>
    <filter
       inkscape:collect="always"
       style="color-interpolation-filters:sRGB"
       id="filter6410"
       x="-0.070775107"
       width="1.1415502"
       y="-0.073268034"
       height="1.1465361">
      <feGaussianBlur
         inkscape:collect="always"
         stdDeviation="6.8100876"
         id="feGaussianBlur6412" />
    </filter>
    <filter
       inkscape:collect="always"
       style="color-interpolation-filters:sRGB"
       id="filter6506"
       x="-0.065739132"
       width="1.1314783"
       y="-0.11630769"
       height="1.2326154">
      <feGaussianBlur
         inkscape:collect="always"
         stdDeviation="6.2999997"
         id="feGaussianBlur6508" />
    </filter>
    <filter
       inkscape:collect="always"
       style="color-interpolation-filters:sRGB"
       id="filter6830"
       x="-0.040072635"
       width="1.0801454"
       y="-0.059837315"
       height="1.1196746">
      <feGaussianBlur
         inkscape:collect="always"
         stdDeviation="1.697168"
         id="feGaussianBlur6832" />
    </filter>
  </defs>
  <sodipodi:namedview
     id="base"
     pagecolor="#ffffff"
     bordercolor="#666666"
     borderopacity="1.0"
     inkscape:pageopacity="0.0"
     inkscape:pageshadow="2"
     inkscape:zoom="0.98994949"
     inkscape:cx="-277.48722"
     inkscape:cy="165.44284"
     inkscape:document-units="px"
     inkscape:current-layer="layer1"
     showgrid="false"
     inkscape:window-width="1360"
     inkscape:window-height="718"
     inkscape:window-x="0"
     inkscape:window-y="0"
     inkscape:window-maximized="1"
     fit-margin-top="0"
     fit-margin-left="0"
     fit-margin-right="0"
     fit-margin-bottom="0" />
  <metadata
     id="metadata7">
    <rdf:RDF>
      <cc:Work
         rdf:about="">
        <dc:format>image/svg+xml</dc:format>
        <dc:type
           rdf:resource="http://purl.org/dc/dcmitype/StillImage" />
        <dc:title></dc:title>
      </cc:Work>
    </rdf:RDF>
  </metadata>
  <g
     inkscape:label="Camada 1"
     inkscape:groupmode="layer"
     id="layer1"
     transform="translate(-180.74441,-256.82678)">
    <g
       id="g6838"
       inkscape:export-xdpi="90"
       inkscape:export-ydpi="90">
      <ellipse
         ry="65"
         rx="114.99999"
         cy="485.93365"
         cx="313.57144"
         id="path6418"
         style="opacity:0.34000017;fill:#000000;fill-opacity:1;filter:url(#filter6506)" />
      <ellipse
         ry="111.53753"
         rx="115.4661"
         cy="384.3569"
         cx="313.20346"
         id="path3370"
         style="fill:#00ff00" />
      <path
         inkscape:connector-curvature="0"
         id="ellipse3374"
         d="m 321.20341,276.53376 a 115.4661,111.53753 0 0 0 -115.4668,111.53711 115.4661,111.53753 0 0 0 57.98828,96.62695 115.4661,111.53753 0 0 1 -45.98828,-88.91211 115.4661,111.53753 0 0 1 115.4668,-111.53711 115.4661,111.53753 0 0 1 57.47265,14.90625 115.4661,111.53753 0 0 0 -69.47265,-22.62109 z"
         style="opacity:0.65;fill:url(#radialGradient4258);fill-opacity:1;filter:url(#filter4808)" />
      <path
         inkscape:connector-curvature="0"
         id="ellipse4196"
         d="m 312.55542,273.17099 a 115.4661,111.53753 0 0 0 -66.95703,20.83984 100.31382,96.90078 0 0 1 54.07813,-15.29492 100.31382,96.90078 0 0 1 100.31445,96.90039 100.31382,96.90078 0 0 1 -100.31445,96.90234 100.31382,96.90078 0 0 1 -100.3125,-96.90234 100.31382,96.90078 0 0 1 4.00585,-26.84375 115.4661,111.53753 0 0 0 -6.28125,35.93555 115.4661,111.53753 0 0 0 115.4668,111.53711 A 115.4661,111.53753 0 0 0 428.02024,384.7081 115.4661,111.53753 0 0 0 312.55542,273.17099 Z"
         style="opacity:0.42000002;fill:#000000;filter:url(#filter6410)" />
      <path
         id="ellipse4198"
         d="m 349.23828,290.8418 c -1.11571,-0.0306 -3.04092,0.0918 -3.52344,0.0918 l -10,0 c -1.01258,0 -8.2029,-0.18468 -8.57226,0 -2.18378,1.09189 -1.47989,1.3769 -1.41602,1.4375 0.67895,0.0796 -0.15043,0.38283 -4.29883,1.41993 -0.92394,0.23098 -2.00363,-0.42592 -2.85546,0 -0.58429,0.29214 -0.81596,1.07472 -1.37891,1.39648 0.0262,0.018 0.0241,0.0312 -0.0508,0.0312 -0.42592,0.21296 -1.42774,0.47619 -1.42774,0 0,-0.0461 0.0308,-0.0759 0.0625,-0.10547 -0.51018,-0.0439 -1.01494,-0.0536 -1.49218,0.10547 -0.63887,0.21296 -0.8254,1.12852 -1.42774,1.42969 -0.42591,0.21296 -1.00377,-0.21296 -1.42969,0 -0.60234,0.30117 -0.82539,1.12656 -1.42773,1.42773 -0.42592,0.21296 -1.00181,-0.21296 -1.42773,0 -0.60234,0.30117 -0.82735,1.12852 -1.42969,1.42969 -0.75293,0.75293 -1.97145,0.83709 -2.85742,1.42773 -0.56033,0.37356 -0.8254,1.12658 -1.42774,1.42774 -0.42591,0.21296 -1.00377,-0.21295 -1.42969,0 -0.60234,0.30117 -0.82539,1.12852 -1.42773,1.42969 -0.42592,0.21296 -1.00181,-0.21296 -1.42773,0 -0.60234,0.30117 -0.82735,1.12656 -1.42969,1.42773 -0.42592,0.21296 -1.00183,-0.21296 -1.42774,0 -0.37931,0.18965 -4.09746,3.90781 -4.28711,4.28711 -0.21296,0.42592 0.21296,1.00182 0,1.42773 -0.30117,0.60234 -1.12656,0.82541 -1.42773,1.42774 -0.21296,0.42592 0.21296,1.00377 0,1.42969 -0.30117,0.60233 -1.12656,0.82539 -1.42773,1.42773 -0.21296,0.42592 0.21296,1.00377 0,1.42969 -0.30117,0.60234 -1.12852,0.82539 -1.42969,1.42773 -0.18468,0.36936 0,7.55969 0,8.57227 l 0,4.28515 0,1.42774 0,2.85742 c 0,0.47619 0.47619,1.42969 0,1.42969 -0.0458,0 -0.076,-0.0311 -0.10547,-0.0625 -0.0437,0.5096 -0.0534,1.01351 0.10547,1.49023 0.005,0.0139 0.0194,0.0255 0.0254,0.0391 -0.93948,-1.0294 -1.54251,-1.60184 1.4043,2.81836 0.82181,1.23272 3.16932,3.16932 4.28515,4.28516 l 1.42774,1.42969 c 0.47619,0.47619 0.82734,1.12656 1.42968,1.42773 0.51661,0.25831 6.14895,0 7.14258,0 0.31087,0 4.25372,0.12574 4.28516,0 0.46197,-1.84789 -1.84789,-5.25286 0,-5.71484 0.34621,-0.0865 0.67243,-0.0735 0.98633,0 l 10.44336,0 1.42773,0 c 0.47619,0 1.00181,-0.21295 1.42773,0 0.60234,0.30117 0.82735,1.12852 1.42969,1.42969 0.42592,0.21296 1.00183,-0.21296 1.42774,0 0.90996,0.45498 6.02005,6.02005 7.14257,7.14257 0.75209,0.7521 3.90562,3.52218 4.28711,4.28516 0.21295,0.42592 -0.21296,1.00377 0,1.42969 0.30117,0.60234 1.12657,0.82539 1.42774,1.42773 0.21296,0.42592 -0.15059,0.97794 0,1.42969 0.33671,1.01015 1.09297,1.84532 1.42969,2.85547 0.15058,0.45176 -0.21296,1.00377 0,1.42969 0.30117,0.60233 1.12656,0.82539 1.42773,1.42773 0.25831,0.51662 0,6.14896 0,7.14258 l 0,18.57226 0,11.42774 c 0,0.74703 0.18782,5.33921 0,5.71484 -0.30117,0.60234 -1.12656,0.82735 -1.42773,1.42969 -0.21296,0.42592 0.21296,1.00182 0,1.42773 -0.30117,0.60234 -1.12852,0.82541 -1.42969,1.42774 -0.44895,0.89789 0.44894,4.81695 0,5.71484 -0.30117,0.60234 -1.12657,0.82735 -1.42774,1.42969 -0.57143,1.14286 0.57142,3.1423 0,4.28516 -0.30117,0.60233 -1.12851,0.82539 -1.42968,1.42773 -0.21295,0.42592 0.21296,1.00377 0,1.42969 -3.269,6.53801 0.59182,-6.06258 -2.85743,4.28515 -0.42857,1.28572 0.42857,2.99944 0,4.28516 -0.33672,1.01015 -1.09101,1.84727 -1.42773,2.85742 -0.15058,0.45175 0.21296,1.00377 0,1.42969 -0.30117,0.60234 -1.12656,0.82539 -1.42773,1.42773 -0.21296,0.42592 0.21296,1.00183 0,1.42774 -0.30117,0.60234 -1.12852,0.82735 -1.42969,1.42969 -0.21296,0.42591 0.21296,1.00181 0,1.42773 -0.30117,0.60234 -1.12657,0.82735 -1.42774,1.42969 -0.21296,0.42592 0.21295,1.00181 0,1.42773 -0.30117,0.60234 -1.12851,0.82735 -1.42968,1.42969 -0.21295,0.42592 0.21296,1.00182 0,1.42773 -0.30117,0.60234 -1.12657,0.82541 -1.42774,1.42774 -0.21296,0.42592 0.15059,0.97793 0,1.42969 -0.67343,2.0203 -2.18398,3.69454 -2.85742,5.71484 -0.15058,0.45176 0.21296,1.00182 0,1.42773 -0.30117,0.60234 -1.21477,0.78887 -1.42773,1.42774 -0.30117,0.90351 0.23098,1.93347 0,2.85742 -0.5165,2.066 -2.184,3.69454 -2.85743,5.71484 -0.42858,1.28572 0.42857,2.99944 0,4.28516 -3.44925,10.34774 0.41159,-2.2509 -2.85742,4.28711 -0.18468,0.36936 0,7.55774 0,8.57031 l 0,6.22461 c 20.54125,0.11052 41.09514,-5.01944 58.83008,-15.64258 37.81868,-21.15206 60.79827,-66.36428 53.70117,-109.38672 -2.58351,-18.9112 -10.70571,-36.5019 -22.52344,-51.19336 -0.002,-0.001 -0.005,-7.2e-4 -0.008,-0.002 -2.08359,-1.04179 -1.26061,-1.28776 -1.47656,-1.81836 -0.11099,-0.13226 -0.2263,-0.26081 -0.33789,-0.39258 -0.21619,-0.17926 -0.51228,-0.38114 -1.04297,-0.64648 -0.42592,-0.21296 -1.00181,0.21296 -1.42773,0 -1.20468,-0.60234 -1.65276,-2.25508 -2.85743,-2.85742 -0.42592,-0.21295 -1.00376,0.21296 -1.42968,0 -1.20467,-0.60233 -1.65275,-2.25313 -2.85743,-2.85547 -0.42592,-0.21296 -1.00181,0.21296 -1.42773,0 -0.60234,-0.30117 -0.82539,-1.12852 -1.42773,-1.42969 -0.42592,-0.21296 -1.00378,0.21296 -1.42969,0 -0.60234,-0.30117 -0.82541,-1.12656 -1.42774,-1.42773 -0.42592,-0.21296 -1.00376,0.21296 -1.42968,0 -0.60233,-0.30117 -0.8254,-1.12852 -1.42774,-1.42969 -0.42591,-0.21296 -1.00377,0.21296 -1.42969,0 -0.60234,-0.30117 -0.82539,-1.12656 -1.42773,-1.42773 -0.42592,-0.21296 -1.00181,0.21296 -1.42773,0 -0.60234,-0.30117 -0.82735,-1.12852 -1.42969,-1.42969 -0.85184,-0.42591 -2.00558,0.42592 -2.85742,0 -1.02718,-1.02717 -1.38249,-1.41683 -1.60743,-1.66992 0.39716,0.49992 0.811,1.27268 -1.25,0.24218 -0.60234,-0.30117 -0.82539,-1.12656 -1.42773,-1.42773 -0.42592,-0.21296 -1.00181,0.21296 -1.42773,0 -0.60234,-0.30117 -0.82735,-1.12852 -1.42969,-1.42969 -0.85184,-0.42592 -2.00558,0.42592 -2.85742,0 -0.60233,-0.30117 -0.8254,-1.12656 -1.42774,-1.42773 -0.85183,-0.42592 -2.00558,0.42592 -2.85742,0 -1.02725,-1.02726 -1.38251,-1.41881 -1.60742,-1.67188 0.39714,0.49993 0.8109,1.27264 -1.25,0.24219 -1.20468,-0.60234 -1.65274,-2.25508 -2.85742,-2.85742 -0.85183,-0.42591 -2.00559,0.42592 -2.85743,0 -0.60234,-0.30116 -0.82539,-1.12657 -1.42773,-1.42774 -0.10869,-0.0543 -0.38982,-0.0816 -0.76172,-0.0918 z m 9.1543,4.13476 c -0.23734,-0.29876 -0.3039,-0.34195 0,0 z m 14.28515,5.71485 c -0.23733,-0.29875 -0.30396,-0.34202 0,0 z m -64.54882,41.66992 -0.98633,0 5.71484,4.28711 c -1.61927,-1.21445 -2.94812,-3.87053 -4.72851,-4.28711 z m -21.0918,-5.77539 c 0.0392,-0.45623 0.10547,-0.91731 0.10547,-1.36719 0,-0.43042 -0.38234,1.07202 -0.10547,1.36719 z m 20.10547,-37.08008 c 0.33671,-0.33672 -1.42774,-0.47619 -1.42774,0 0,0.47619 1.00182,0.21296 1.42774,0 z m 8.63476,-4.39258 c 0.45569,0.0392 0.91592,0.10547 1.36524,0.10547 0.0181,-0.009 0.0334,-0.0213 0.0508,-0.0312 -0.12436,-0.0854 -1.17106,-0.302 -1.41602,-0.0742 z m 9.94922,-2.74219 c -0.45344,-0.0531 -1.56013,-0.01 -2.86914,-0.01 l 1.42774,0 c 1.27801,0 1.4808,0.0471 1.4414,0.01 z m -38.20312,46.13086 c 0.54334,0.38002 1.40597,0.64677 1.04883,1.00391 -0.0677,0.0677 -0.54622,-0.44838 -1.04883,-1.00391 z"
         style="opacity:0.63999999;fill:url(#radialGradient4219);fill-opacity:1;filter:url(#filter4637)"
         inkscape:connector-curvature="0" />
      <path
         inkscape:connector-curvature="0"
         id="path4827"
         d="m 223.24371,420.51179 c 0.2792,0.37226 0.83385,0.9863 1.01016,1.51523 0.0266,0.0799 -0.0266,0.17267 0,0.25253 0.0595,0.17858 0.19301,0.32651 0.25253,0.50508 0.0532,0.15972 -0.0532,0.34536 0,0.50508 0.11905,0.35714 0.38603,0.65301 0.50508,1.01015 0.0532,0.15972 -0.0532,0.34536 0,0.50508 0.0595,0.17857 0.19301,0.3265 0.25254,0.50507 0.0579,0.17371 -0.0745,0.60861 0,0.75762 0.0532,0.10648 0.1993,0.14605 0.25254,0.25253 0.10101,0.20203 -0.10102,0.55559 0,0.75762 0.0532,0.10648 0.19929,0.14606 0.25253,0.25254 0.0376,0.0753 -0.0376,0.17724 0,0.25254 0.0532,0.10647 0.1993,0.14605 0.25254,0.25253 0.0377,0.0753 -0.0376,0.17725 0,0.25254 0.0532,0.10648 0.1993,0.14606 0.25254,0.25254 0.0377,0.0753 -0.0376,0.17725 0,0.25254 0.0532,0.10648 0.21489,0.1396 0.25254,0.25254 0.0532,0.15971 -0.0532,0.34535 0,0.50507 0.0376,0.11294 0.1993,0.14606 0.25254,0.25254 0.0376,0.0753 -0.0376,0.17725 0,0.25254 0.0532,0.10648 0.19929,0.14606 0.25253,0.25254 0.0377,0.0753 -0.0376,0.17724 0,0.25253 0.0532,0.10648 0.2149,0.1396 0.25254,0.25254 0.0532,0.15972 -0.0408,0.34175 0,0.50508 0.0913,0.36522 0.38603,0.65301 0.50508,1.01015 0.0266,0.0799 -0.0377,0.17725 0,0.25254 0.57788,1.15577 -0.10467,-1.07162 0.50508,0.75761 0.0758,0.22729 -0.0758,0.53033 0,0.75762 0.0376,0.11294 0.21489,0.1396 0.25253,0.25254 0.0532,0.15972 0,0.33671 0,0.50507 0,0.0842 -0.0376,0.17725 0,0.25254 0.0532,0.10648 0.1993,0.14606 0.25254,0.25254 0.0753,0.15058 -0.0532,0.34536 0,0.50508 0.0595,0.17857 0.19302,0.3265 0.25254,0.50507 0.0266,0.0799 0,0.16836 0,0.25254 0.0842,0.16836 0.19301,0.3265 0.25254,0.50508 0.0579,0.1737 -0.0745,0.60861 0,0.75761 0.0532,0.10648 0.1993,0.14606 0.25254,0.25254 0.0376,0.0753 -0.0377,0.17724 0,0.25254 0.0532,0.10648 0.19929,0.14606 0.25253,0.25253 0.0745,0.14901 -0.0579,0.58392 0,0.75762 0.0595,0.17857 0.19302,0.3265 0.25254,0.50508 0.0266,0.0799 0,0.16835 0,0.25253 0.0842,0.16836 0.19302,0.32651 0.25254,0.50508 0.0758,0.22728 -0.0758,0.53033 0,0.75761 0.60975,1.82924 -0.0728,-0.39815 0.50508,0.75762 0.0753,0.15058 -0.0532,0.34536 0,0.50508 0.0595,0.17857 0.19301,0.3265 0.25253,0.50507 0.0799,0.23958 -0.0612,0.51262 0,0.75762 0.0457,0.18261 0.19302,0.3265 0.25254,0.50507 0.0709,0.21262 -0.0752,1.11234 0,1.26269 0.0532,0.10648 0.21489,0.1396 0.25254,0.25254 0.0479,0.14366 0,1.02484 0,1.26269 0,0.0842 -0.0266,0.17268 0,0.25254 0.0595,0.17857 0.19302,0.3265 0.25254,0.50508 0.0266,0.0799 -0.0376,0.17724 0,0.25253 0.0532,0.10648 0.1993,0.14606 0.25254,0.25254 0.0753,0.15059 -0.0753,0.35449 0,0.50508 0.0532,0.10648 0.1993,0.14606 0.25254,0.25254 0.0753,0.15058 -0.0753,0.35449 0,0.50507 0.0532,0.10648 0.19929,0.14606 0.25253,0.25254 0.0377,0.0753 -0.0376,0.17725 0,0.25254 0.0532,0.10648 0.1993,0.14606 0.25254,0.25254 0.0377,0.0753 -0.0376,0.17724 0,0.25254 0.0335,0.067 0.69056,0.72408 0.75762,0.75761 0.0753,0.0376 0.16835,0 0.25253,0 0.0842,0.0842 0.14606,0.1993 0.25254,0.25254 0.15059,0.0753 0.35449,-0.0753 0.50508,0 0.10648,0.0532 0.15348,0.1865 0.25254,0.25254 0.12717,0.55638 0.51952,0.13349 0.75761,0.25253 0.10648,0.0532 0.14606,0.1993 0.25254,0.25254 0.0753,0.0376 0.17725,-0.0376 0.25254,0 0.10648,0.0532 0.14606,0.1993 0.25254,0.25254 0.0753,0.0376 0.17267,-0.0266 0.25253,0 0.17858,0.0595 0.32651,0.19301 0.50508,0.25254 0.14248,0.0475 0.59167,0 0.75761,0 0.67344,0 1.34687,0 2.02031,0 0.25254,0 0.51262,-0.0613 0.75761,0 0.18261,0.0456 0.32247,0.20688 0.50508,0.25254 0.32666,0.0817 0.68349,-0.0817 1.01015,0 0.18261,0.0457 0.32247,0.20688 0.50508,0.25254 0.32666,0.0817 0.68349,-0.0817 1.01015,0 0.18261,0.0457 0.32247,0.20688 0.50508,0.25253 0.40833,0.10209 0.84997,-0.0825 1.26269,0 0.18457,0.0369 0.32246,0.20689 0.50507,0.25254 0.40833,0.10208 0.84997,-0.0825 1.2627,0 0.18457,0.0369 0.3265,0.19302 0.50507,0.25254 0.23958,0.0799 0.50998,-0.0495 0.75762,0 0.26103,0.0522 0.49936,0.18797 0.75761,0.25254 0.0817,0.0204 0.17268,-0.0266 0.25254,0 0.17857,0.0595 0.32246,0.20688 0.50508,0.25254 0.16333,0.0408 0.34174,-0.0408 0.50507,0 0.18261,0.0456 0.32651,0.19301 0.50508,0.25253 0.0799,0.0266 0.16836,0 0.25254,0 0.16835,0.0842 0.3265,0.19302 0.50507,0.25254 0.15972,0.0532 0.34536,-0.0532 0.50508,0 0.17857,0.0595 0.3265,0.19302 0.50507,0.25254 0.24599,0.082 1.02213,-0.0802 1.2627,0 0.17857,0.0595 0.3265,0.19301 0.50507,0.25254 0.13668,0.0456 0.92412,0 1.01015,0 0.17439,0 0.93338,-0.0384 1.01016,0 0.10648,0.0532 0.14606,0.1993 0.25253,0.25254 0.0753,0.0376 0.16836,0 0.25254,0 0.16836,0 0.34175,-0.0408 0.50508,0 0.18261,0.0457 0.3265,0.19301 0.50508,0.25253 0.0799,0.0266 0.16835,0 0.25253,0 0.21676,0 1.36748,-0.0493 1.51523,0 0.11294,0.0376 0.14606,0.1993 0.25254,0.25254 0.0753,0.0376 0.17268,-0.0266 0.25254,0 0.17857,0.0595 0.3265,0.19302 0.50507,0.25254 0.0799,0.0266 0.17268,-0.0266 0.25254,0 0.17857,0.0595 0.32247,0.20689 0.50508,0.25254 0.16333,0.0408 0.34536,-0.0532 0.50508,0 0.11293,0.0377 0.1396,0.21489 0.25253,0.25254 0.15972,0.0532 0.34175,-0.0408 0.50508,0 0.18261,0.0457 0.3265,0.19301 0.50508,0.25254 0.15972,0.0532 0.35449,-0.0753 0.50507,0 0.10648,0.0532 0.14606,0.19929 0.25254,0.25253 0.15059,0.0753 0.34536,-0.0532 0.50508,0 0.17857,0.0595 0.3265,0.19302 0.50507,0.25254 0.0799,0.0266 0.17725,-0.0376 0.25254,0 0.10648,0.0532 0.14606,0.1993 0.25254,0.25254 0.0673,0.0337 1.40098,0 1.51523,0 0.0842,0 0.17724,-0.0376 0.25254,0 0.10648,0.0532 0.1396,0.21489 0.25253,0.25254 0.11551,0.0385 0.89778,-0.0562 1.01016,0 0.10648,0.0532 0.14606,0.1993 0.25254,0.25254 0.13353,0.0668 0.88711,-0.0308 1.01015,0 0.18261,0.0456 0.3265,0.19301 0.50507,0.25253 0.15972,0.0532 0.34536,-0.0532 0.50508,0 0.17857,0.0595 0.32651,0.19302 0.50508,0.25254 0.15972,0.0532 0.34535,-0.0532 0.50507,0 0.17857,0.0595 0.32651,0.19302 0.50508,0.25254 0.15972,0.0532 0.35449,-0.0753 0.50508,0 0.10647,0.0532 0.14605,0.1993 0.25253,0.25254 0.0753,0.0376 0.17268,-0.0266 0.25254,0 0.17857,0.0595 0.32651,0.19301 0.50508,0.25254 0.0799,0.0266 0.16836,0 0.25254,0 0.16835,0.0842 0.3265,0.19301 0.50507,0.25253 0.15972,0.0532 0.34536,-0.0532 0.50508,0 0.17857,0.0595 0.3265,0.19302 0.50508,0.25254 0.0798,0.0266 0.17724,-0.0376 0.25253,0 0.10648,0.0532 0.14606,0.1993 0.25254,0.25254 0.20203,0.10102 0.55559,-0.10101 0.75762,0 0.10648,0.0532 0.14605,0.1993 0.25253,0.25254 0.0664,0.0332 0.8781,0 1.01016,0 0.11373,0 0.68075,0.0384 0.75761,0 0.067,-0.0335 0.72409,-0.69056 0.75762,-0.75762 0.0376,-0.0753 -0.0266,-0.17267 0,-0.25253 0.0595,-0.17857 0.19301,-0.32651 0.25253,-0.50508 0.0266,-0.0799 -0.0376,-0.17725 0,-0.25254 0.0532,-0.10648 0.18651,-0.15348 0.25254,-0.25254 0.91553,-1.83104 -0.2662,0.3993 0.50508,-0.75761 0.55638,-0.12718 0.13349,-0.51952 0.25254,-0.75761 0.0532,-0.10648 0.19929,-0.14606 0.25253,-0.25254 0.0377,-0.0753 -0.0266,-0.17268 0,-0.25254 0.0595,-0.17857 0.19302,-0.32651 0.25254,-0.50508 0.0579,-0.1737 -0.0745,-0.60861 0,-0.75761 0.0532,-0.10648 0.1993,-0.14606 0.25254,-0.25254 0.0753,-0.15058 -0.0753,-0.35449 0,-0.50508 0.0532,-0.10648 0.1865,-0.15348 0.25254,-0.25253 0.55638,-0.12718 0.13349,-0.51952 0.25254,-0.75762 0.0532,-0.10648 0.19929,-0.14606 0.25253,-0.25254 0.0376,-0.0753 0,-0.16836 0,-0.25253 0,-0.16836 -0.0532,-0.34536 0,-0.50508 0.0376,-0.11294 0.1993,-0.14606 0.25254,-0.25254 0.0753,-0.15058 -0.0753,-0.35449 0,-0.50508 0.0532,-0.10648 0.1993,-0.14605 0.25254,-0.25253 0.0376,-0.0753 -0.0266,-0.17268 0,-0.25254 0.0595,-0.17857 0.20689,-0.32247 0.25254,-0.50508 0.0408,-0.16333 0,-0.33672 0,-0.50507 0,-0.0842 -0.0376,-0.17725 0,-0.25254 0.0532,-0.10648 0.1993,-0.14606 0.25254,-0.25254 0.0376,-0.0753 -0.0376,-0.17725 0,-0.25254 0.0532,-0.10648 0.21489,-0.1396 0.25254,-0.25254 0.0385,-0.1155 -0.0562,-0.89778 0,-1.01015 0.0532,-0.10648 0.21489,-0.1396 0.25253,-0.25254 0.36447,-1.09339 -0.48277,0.0928 0.25254,-1.01015 0.066,-0.099 0.1865,-0.15348 0.25254,-0.25254 0.10441,-0.15662 0.16836,-0.33672 0.25254,-0.50507 0.16836,-0.33672 0.36526,-0.66062 0.50507,-1.01016 0.0989,-0.24716 0.15368,-0.51045 0.25254,-0.75761 0.0699,-0.17477 0.19302,-0.32651 0.25254,-0.50508 0.0266,-0.0799 0,-0.16836 0,-0.25254 0.0842,-0.25253 0.13349,-0.51952 0.25254,-0.75761 0.0532,-0.10648 0.19129,-0.15046 0.25254,-0.25254 0.68977,-1.14962 0.3396,-0.72274 0.75761,-1.76777 0.13982,-0.34953 0.41377,-0.64493 0.50508,-1.01015 0.0408,-0.16333 -0.0532,-0.34536 0,-0.50507 0.0376,-0.11294 0.1993,-0.14606 0.25254,-0.25254 0.0376,-0.0753 -0.0376,-0.17725 0,-0.25254 0.0674,-0.13474 0.4377,-0.37034 0.50507,-0.50508 0.0376,-0.0753 0,-0.16836 0,-0.25254 0,-0.0842 0,-0.16835 0,-0.25253 0,-0.37588 -0.0376,-0.32234 0.25254,-0.75762 0.83756,-0.83756 -0.11905,0.2381 0.25254,-0.50507 0.0532,-0.10648 0.1993,-0.14606 0.25254,-0.25254 0.0376,-0.0753 -0.0376,-0.17725 0,-0.25254 0.0532,-0.10648 0.19929,-0.14606 0.25253,-0.25254 0.0376,-0.0753 0,-0.16836 0,-0.25254 0.0842,-0.16836 0.14813,-0.34846 0.25254,-0.50507 0.066,-0.0991 0.1865,-0.15349 0.25254,-0.25254 0.10441,-0.15662 0.16836,-0.33672 0.25254,-0.50508 0.25254,-0.50507 0.50508,-1.01015 0.75761,-1.51523 0.91553,-1.83104 -0.2662,0.3993 0.50508,-0.75761 0.10441,-0.15662 0.14813,-0.34846 0.25254,-0.50508 0.31206,-0.46809 0.25254,-0.0232 0.25254,-0.50507 0,-0.16836 -0.0532,-0.34536 0,-0.50508 0.0376,-0.11294 0.1865,-0.15348 0.25253,-0.25254 0.10442,-0.15661 0.16836,-0.33671 0.25254,-0.50507 0.0842,-0.16836 0.19302,-0.32651 0.25254,-0.50508 0.0532,-0.15972 -0.0753,-0.35449 0,-0.50508 0.0532,-0.10648 0.1993,-0.14605 0.25254,-0.25253 0.008,-0.0168 0.001,-1.00821 0,-1.01016 -0.31379,-0.47067 -1.00024,-0.80415 -1.51523,-1.01015 -0.24716,-0.0989 -0.51952,-0.13349 -0.75761,-0.25254 -1.27714,-0.85142 -0.20829,-0.23484 -1.51523,-0.75761 -0.34954,-0.13982 -0.64493,-0.41377 -1.01016,-0.50508 -0.16333,-0.0408 -0.34535,0.0532 -0.50507,0 -0.11294,-0.0376 -0.16836,-0.16836 -0.25254,-0.25254 -0.16836,-0.0842 -0.32651,-0.19301 -0.50508,-0.25253 -0.0799,-0.0266 -0.17724,0.0376 -0.25254,0 -0.10647,-0.0532 -0.13959,-0.2149 -0.25253,-0.25254 -0.15972,-0.0532 -0.34175,0.0408 -0.50508,0 -0.18261,-0.0457 -0.3265,-0.19302 -0.50508,-0.25254 -0.1585,-0.0528 -0.80685,0 -1.01015,0 -0.67343,0 -1.34687,0 -2.0203,0 -0.16836,0 -0.33672,0 -0.50508,0 -0.0842,0 -0.17268,0.0266 -0.25254,0 -0.17857,-0.0595 -0.32246,-0.20689 -0.50507,-0.25254 -0.16334,-0.0408 -0.33672,0 -0.50508,0 -0.50508,0 -1.01015,0 -1.51523,0 -1.43105,0 -2.8621,0 -4.29315,0 -0.50507,0 -1.01015,0 -1.51523,0 -0.16836,0 -0.34174,0.0408 -0.50507,0 -0.18261,-0.0457 -0.32651,-0.19301 -0.50508,-0.25254 -0.16362,-0.0545 -1.05594,0 -1.26269,0 -0.0842,0 -0.17268,0.0266 -0.25254,0 -0.17857,-0.0595 -0.3265,-0.19301 -0.50507,-0.25254 -0.23958,-0.0798 -0.51262,0.0613 -0.75762,0 -0.18261,-0.0456 -0.3265,-0.19301 -0.50507,-0.25253 -0.22729,-0.0758 -0.53033,0.0758 -0.75762,0 -0.17857,-0.0595 -0.3265,-0.19302 -0.50508,-0.25254 -0.0799,-0.0266 -0.17724,0.0376 -0.25253,0 -0.10648,-0.0532 -0.14606,-0.1993 -0.25254,-0.25254 -0.16138,-0.0807 -0.80689,0.0678 -1.01015,0 -0.17858,-0.0595 -0.32651,-0.19301 -0.50508,-0.25254 -0.15972,-0.0532 -0.35449,0.0753 -0.50508,0 -0.10648,-0.0532 -0.14606,-0.1993 -0.25253,-0.25254 -0.0753,-0.0376 -0.17268,0.0266 -0.25254,0 -0.17857,-0.0595 -0.32651,-0.19301 -0.50508,-0.25253 -0.1737,-0.0579 -0.60861,0.0745 -0.75761,0 -0.10648,-0.0532 -0.14606,-0.1993 -0.25254,-0.25254 -0.15059,-0.0753 -0.34536,0.0532 -0.50508,0 -0.17857,-0.0595 -0.3265,-0.19302 -0.50507,-0.25254 -0.24494,-0.0816 -1.34764,0.0838 -1.51523,0 -0.10648,-0.0532 -0.14606,-0.1993 -0.25254,-0.25254 -0.0769,-0.0384 -0.64388,0 -0.75762,0 -0.75761,0 -1.51522,0 -2.27284,0 -0.086,0 -0.87348,0.0456 -1.01015,0 -0.17857,-0.0595 -0.32247,-0.20688 -0.50508,-0.25254 -0.16333,-0.0408 -0.33998,0.033 -0.50507,0 -0.26103,-0.0522 -0.49659,-0.20033 -0.75762,-0.25253 -0.33018,-0.066 -0.67343,0 -1.01015,0 -0.50508,0 -1.01015,0 -1.51523,0 -0.16836,0 -0.34536,0.0532 -0.50508,0 -0.11293,-0.0376 -0.1396,-0.2149 -0.25253,-0.25254 -0.13922,-0.0464 -1.30092,0 -1.51523,0 -1.09433,0 -2.18867,0 -3.283,0 -3.11464,0 -6.22927,0 -9.34391,0 -3.19882,0 -6.39763,0 -9.59645,0 -0.67343,0 -1.34687,0 -2.0203,0 -0.16595,0 -0.61514,0.0475 -0.75762,0 -1.04852,-0.34951 0.10717,-0.4056 -1.51523,0 z"
         style="opacity:0.47000002;fill:#ffffff;fill-rule:evenodd;stroke:#000000;stroke-width:1px;stroke-linecap:butt;stroke-linejoin:miter;stroke-opacity:1;filter:url(#filter5137)" />
      <g
         id="g6834">
        <text
           xml:space="preserve"
           style="font-style:normal;font-weight:normal;font-size:90px;line-height:125%;font-family:sans-serif;letter-spacing:0px;word-spacing:0px;opacity:0.65;fill:#ff0000;fill-opacity:1;stroke:none;stroke-width:1px;stroke-linecap:butt;stroke-linejoin:miter;stroke-opacity:1;filter:url(#filter6830)"
           x="254.28572"
           y="413.7908"
           id="text6510"
           sodipodi:linespacing="125%"><tspan
             sodipodi:role="line"
             id="tspan6512"
             x="254.28572"
             y="413.7908">50</tspan></text>
      </g>
    </g>
  </g>
</svg>
