<?xml version="1.0" encoding="UTF-8" standalone="no"?>
<!-- Created with Inkscape (http://www.inkscape.org/) -->

<svg
   xmlns:dc="http://purl.org/dc/elements/1.1/"
   xmlns:cc="http://creativecommons.org/ns#"
   xmlns:rdf="http://www.w3.org/1999/02/22-rdf-syntax-ns#"
   xmlns:svg="http://www.w3.org/2000/svg"
   xmlns="http://www.w3.org/2000/svg"
   xmlns:xlink="http://www.w3.org/1999/xlink"
   xmlns:sodipodi="http://sodipodi.sourceforge.net/DTD/sodipodi-0.dtd"
   xmlns:inkscape="http://www.inkscape.org/namespaces/inkscape"
   width="210mm"
   height="297mm"
   viewBox="0 0 744.09448819 1052.3622047"
   id="svg2"
   version="1.1"
   inkscape:version="0.91 r13725"
   sodipodi:docname="Ex17_Henrique_Caixa_Envelhecida.svg">
  <defs
     id="defs4">
    <inkscape:path-effect
       effect="powerstroke"
       id="path-effect5714"
       is_visible="true"
       offset_points="0,0.5"
       sort_points="true"
       interpolator_type="CubicBezierJohan"
       interpolator_beta="0.2"
       start_linecap_type="zerowidth"
       linejoin_type="round"
       miter_limit="4"
       end_linecap_type="zerowidth"
       cusp_linecap_type="round" />
    <inkscape:path-effect
       effect="powerstroke"
       id="path-effect5239"
       is_visible="true"
       offset_points="0,0.5"
       sort_points="true"
       interpolator_type="CubicBezierJohan"
       interpolator_beta="0.2"
       start_linecap_type="zerowidth"
       linejoin_type="round"
       miter_limit="4"
       end_linecap_type="zerowidth"
       cusp_linecap_type="round" />
    <linearGradient
       inkscape:collect="always"
       id="linearGradient4872">
      <stop
         style="stop-color:#b57645;stop-opacity:1;"
         offset="0"
         id="stop4874" />
      <stop
         style="stop-color:#b57645;stop-opacity:0;"
         offset="1"
         id="stop4876" />
    </linearGradient>
    <linearGradient
       inkscape:collect="always"
       id="linearGradient4864">
      <stop
         style="stop-color:#b57645;stop-opacity:1;"
         offset="0"
         id="stop4866" />
      <stop
         style="stop-color:#b57645;stop-opacity:0;"
         offset="1"
         id="stop4868" />
    </linearGradient>
    <linearGradient
       inkscape:collect="always"
       id="linearGradient4858">
      <stop
         style="stop-color:#b57645;stop-opacity:1;"
         offset="0"
         id="stop4860" />
      <stop
         style="stop-color:#b57645;stop-opacity:0;"
         offset="1"
         id="stop4862" />
    </linearGradient>
    <inkscape:path-effect
       effect="powerstroke"
       id="path-effect4223"
       is_visible="true"
       offset_points="0,0.5"
       sort_points="true"
       interpolator_type="CubicBezierJohan"
       interpolator_beta="0.2"
       start_linecap_type="zerowidth"
       linejoin_type="round"
       miter_limit="4"
       end_linecap_type="zerowidth"
       cusp_linecap_type="round" />
    <inkscape:path-effect
       effect="powerstroke"
       id="path-effect4212"
       is_visible="true"
       offset_points="0,0.50881385"
       sort_points="true"
       interpolator_type="CubicBezierJohan"
       interpolator_beta="0.2"
       start_linecap_type="zerowidth"
       linejoin_type="round"
       miter_limit="4"
       end_linecap_type="zerowidth"
       cusp_linecap_type="round" />
    <inkscape:path-effect
       effect="powerstroke"
       id="path-effect4176"
       is_visible="true"
       offset_points="0,0.5"
       sort_points="true"
       interpolator_type="CubicBezierJohan"
       interpolator_beta="0.2"
       start_linecap_type="zerowidth"
       linejoin_type="round"
       miter_limit="4"
       end_linecap_type="zerowidth"
       cusp_linecap_type="round" />
    <inkscape:path-effect
       effect="powerstroke"
       id="path-effect4168"
       is_visible="true"
       offset_points="0,0.49756299"
       sort_points="true"
       interpolator_type="CubicBezierJohan"
       interpolator_beta="0.2"
       start_linecap_type="zerowidth"
       linejoin_type="round"
       miter_limit="4"
       end_linecap_type="zerowidth"
       cusp_linecap_type="round" />
    <inkscape:path-effect
       effect="powerstroke"
       id="path-effect4164"
       is_visible="true"
       offset_points="0,0.52638301"
       sort_points="true"
       interpolator_type="CubicBezierJohan"
       interpolator_beta="0.2"
       start_linecap_type="zerowidth"
       linejoin_type="round"
       miter_limit="4"
       end_linecap_type="zerowidth"
       cusp_linecap_type="round" />
    <radialGradient
       inkscape:collect="always"
       xlink:href="#linearGradient4864"
       id="radialGradient4880"
       cx="237.50447"
       cy="591.53369"
       fx="237.50447"
       fy="591.53369"
       r="114.23641"
       gradientTransform="matrix(4.8602403,0.02222377,-0.01714648,3.7498631,-893.04492,-1618.4878)"
       gradientUnits="userSpaceOnUse" />
    <radialGradient
       inkscape:collect="always"
       xlink:href="#linearGradient4872"
       id="radialGradient4885"
       cx="471.37949"
       cy="595.63196"
       fx="471.37949"
       fy="595.63196"
       r="108.77068"
       gradientTransform="matrix(3.0395015,0.8256918,-1.0345901,3.8084888,-357.54355,-2031.0219)"
       gradientUnits="userSpaceOnUse" />
    <radialGradient
       inkscape:collect="always"
       xlink:href="#linearGradient4858"
       id="radialGradient4887"
       cx="333.70624"
       cy="348.91946"
       fx="333.70624"
       fy="348.91946"
       r="219.84908"
       gradientTransform="matrix(1.2713875,-0.98572166,0.73684812,0.9503895,-353.61676,369.62547)"
       gradientUnits="userSpaceOnUse" />
    <filter
       inkscape:collect="always"
       style="color-interpolation-filters:sRGB"
       id="filter4257"
       x="-0.036415161"
       width="1.0728303"
       y="-0.043395317"
       height="1.0867906">
      <feGaussianBlur
         inkscape:collect="always"
         stdDeviation="2.4319127"
         id="feGaussianBlur4259" />
    </filter>
  </defs>
  <sodipodi:namedview
     id="base"
     pagecolor="#ffffff"
     bordercolor="#666666"
     borderopacity="1.0"
     inkscape:pageopacity="0.0"
     inkscape:pageshadow="2"
     inkscape:zoom="0.70710678"
     inkscape:cx="26.428143"
     inkscape:cy="636.79294"
     inkscape:document-units="px"
     inkscape:current-layer="g4369"
     showgrid="false"
     inkscape:window-width="1360"
     inkscape:window-height="718"
     inkscape:window-x="0"
     inkscape:window-y="0"
     inkscape:window-maximized="1"
     inkscape:object-nodes="true"
     showguides="false" />
  <metadata
     id="metadata7">
    <rdf:RDF>
      <cc:Work
         rdf:about="">
        <dc:format>image/svg+xml</dc:format>
        <dc:type
           rdf:resource="http://purl.org/dc/dcmitype/StillImage" />
        <dc:title />
      </cc:Work>
    </rdf:RDF>
  </metadata>
  <g
     inkscape:label="fundo"
     inkscape:groupmode="layer"
     id="layer1"
     style="display:none">
    <path
       style="fill:none;fill-rule:evenodd;stroke:#000000;stroke-width:1px;stroke-linecap:butt;stroke-linejoin:miter;stroke-opacity:1"
       d="m 347.55078,228.24023 -205.64648,124.60743 3,171.95703 c 0,0 8.5,52.3192 1.5,85.97851 -7,33.65931 1.5,85.97657 1.5,85.97657 l 218.16797,123.41796 210.87109,-181.9375 -4,-316 -112.69727,-47 -112.69531,-47 z"
       id="path4198"
       inkscape:connector-curvature="0" />
  </g>
  <g
     id="g4369"
     inkscape:groupmode="layer"
     inkscape:label="caixa"
     style="display:inline">
    <path
       inkscape:connector-curvature="0"
       id="path4371"
       d="m 360.62446,357.37725 -1.01015,1.01016"
       style="fill:none;fill-rule:evenodd;stroke:#000000;stroke-width:1px;stroke-linecap:butt;stroke-linejoin:miter;stroke-opacity:1" />
    <path
       sodipodi:nodetypes="cccczcc"
       inkscape:connector-curvature="0"
       id="path4373"
       d="M 141.90359,352.84862 363.63974,468.1627 366.07193,820.17853 147.90359,696.7603 c 0,0 -8.5,-52.31861 -1.5,-85.97792 7,-33.65931 -1.5,-85.97792 -1.5,-85.97792 z"
       style="opacity:1;fill:url(#radialGradient4880);fill-opacity:1;stroke:none;stroke-width:4.2178669;stroke-linejoin:miter;stroke-miterlimit:4;stroke-dasharray:none;stroke-dashoffset:49.40977859;stroke-opacity:1" />
    <path
       style="opacity:0.99999999;fill:url(#radialGradient4887);fill-opacity:1;stroke:none;stroke-width:4.2178669;stroke-linejoin:miter;stroke-miterlimit:4;stroke-dasharray:none;stroke-dashoffset:49.40977859;stroke-opacity:1"
       d="M 347.55078 228.24023 L 141.9043 352.84766 L 252.77148 410.50586 L 363.64062 468.16211 L 572.94336 322.24023 L 460.24609 275.24023 L 347.55078 228.24023 z "
       id="path4375" />
    <path
       sodipodi:nodetypes="ccccc"
       inkscape:connector-curvature="0"
       id="path4379"
       d="m 572.94335,322.24092 4,316 -210.87142,181.93761 -2.43219,-352.01583 z"
       style="opacity:1;fill:url(#radialGradient4885);fill-opacity:1;stroke:none;stroke-width:4.2178669;stroke-linejoin:miter;stroke-miterlimit:4;stroke-dasharray:none;stroke-dashoffset:49.40977859;stroke-opacity:1" />
    <path
       transform="matrix(0.92651405,-0.37626018,0.37626018,0.92651405,-153.15462,170.48234)"
       style="opacity:1;fill:#b4a69e;fill-opacity:1;stroke:none;stroke-width:4.14741993;stroke-linejoin:miter;stroke-miterlimit:4;stroke-dasharray:none;stroke-dashoffset:49.40977859;stroke-opacity:0.80232562;filter:url(#filter4257)"
       inkscape:transform-center-x="-0.20617389"
       inkscape:transform-center-y="23.722058"
       d="m 456.94552,449.47253 -83.83446,25.46329 -44.62998,90.81003 38.33192,-95.49189 -61.97311,-72.21162 67.99857,67.84409 z"
       id="path4899"
       inkscape:connector-curvature="0"
       sodipodi:nodetypes="ccccccc" />
    <path
       style="opacity:1;fill:#008000;fill-opacity:0.43921569;stroke:none;stroke-width:4.14741993;stroke-linejoin:miter;stroke-miterlimit:4;stroke-dasharray:none;stroke-dashoffset:49.40977859;stroke-opacity:1"
       d="m 437.6991,263.93815 26.16296,12.02082 -184.81076,148.61608 -35.80656,-17.0942 z"
       id="rect3443"
       inkscape:connector-curvature="0"
       sodipodi:nodetypes="ccccc" />
    <path
       style="opacity:1;fill:#008000;fill-opacity:0.43921569;stroke:none;stroke-width:4.14741993;stroke-linejoin:miter;stroke-miterlimit:4;stroke-dasharray:none;stroke-dashoffset:49.40977859;stroke-opacity:1"
       d="m 243.24474,407.48083 35.80656,17.09422 -2.57255,22.50374 -5.23008,-6.35876 -4.66941,6.35876 -5.13909,-6.91942 -8.65685,6.7981 0.007,-7.65685 -5.62652,5.04809 -2.68198,-5.22487 -7.62652,6.78033 z"
       id="rect3448"
       inkscape:connector-curvature="0"
       sodipodi:nodetypes="cccccccccccc" />
    <path
       style="fill:#000000;fill-rule:evenodd;stroke:none;stroke-width:1px;stroke-linecap:butt;stroke-linejoin:miter;stroke-opacity:1"
       d="m -64.684065,600.15044 50.204577,-55.15433 a 0.5,0.5 0 0 0 -0.0079,-0.68161 l -28.991377,-30.4056 a 0.49998053,0.50005611 76.862757 0 0 -0.212741,-0.1322 l -22.627411,-7.07106 a 0.50000002,0.50000002 0 0 0 -0.03333,-0.009 l -29.698478,-7.07107 a 0.50003258,0.4999951 34.586957 0 0 -0.396977,0.0729 l -17.237645,11.72159 -11.04242,-18.6341 a 0.5,0.5 0 0 0 -0.91781,0.36531 l 8.48528,37.47666 a 0.5,0.5 0 0 0 0.54968,0.38573 l 16.707094,-2.08839 9.724648,11.11389 a 0.5,0.5 0 0 0 0.760398,-0.009 l 10.49145,-12.58972 21.85847,-4.09847 c 0,-0.60246 0,19.54425 0,21.20872 l -7.732712,16.87136 a 0.5,0.5 0 0 0 0.230925,0.65554 l 6.093931,3.04696 -32.932692,13.72196 a 0.5,0.5 0 0 0 -0.116133,0.85507 l 26.16296,20.5061 z m -0.06131,-0.7301 -25.490981,-19.97941 33.153018,-13.81376 a 0.50000336,0.49999954 0 0 0 0.03129,-0.90876 l -6.638753,-3.31937 7.576788,-16.53116 a 0.49995207,0.5001163 57.303238 0 0 0.04547,-0.20834 c 0,0 0,-21.92031 0,-21.92031 a 0.49999987,0.50001542 84.69001 0 0 -0.592162,-0.49143 l -22.627402,4.24263 a 0.5,0.5 0 0 0 -0.291966,0.17135 l -10.231774,12.27811 -9.513928,-10.87306 a 0.5,0.5 0 0 0 -0.438305,-0.16689 l -16.520943,2.06512 -7.68387,-33.93709 9.69454,16.35954 a 0.50000835,0.49999999 0 0 0 0.7113,0.15857 l 17.495281,-11.89678 29.467097,7.01598 22.487448,7.02732 28.580662,29.97485 -49.891013,54.80985 z"
       id="path5712"
       inkscape:path-effect="#path-effect5714"
       inkscape:original-d="m -65.05382,599.81387 50.204577,-55.15433 -28.991377,-30.4056 -22.62742,-7.07106 -29.69849,-7.07107 -17.67767,12.02081 -11.3137,-19.09188 8.48528,37.47666 16.97056,-2.12132 9.89949,11.31371 10.60661,-12.72792 22.62742,-4.24264 0,21.92031 -7.77818,16.97056 7.07107,3.53553 -33.94113,14.14214 z"
       inkscape:connector-curvature="0" />
    <path
       style="fill:#b4a69e;fill-opacity:1;fill-rule:evenodd;stroke:#000000;stroke-width:1px;stroke-linecap:butt;stroke-linejoin:miter;stroke-opacity:1"
       d="m 227.68839,541.124 c 61.51828,4.24264 72.12488,-14.84924 75.66042,-23.33452 3.53553,-8.48528 -1.41422,-48.79037 -1.41422,-48.79037 l 23.33453,-0.70711 c 0,0 28.99138,-9.19239 25.45584,1.41422 -3.53553,10.6066 -32.52691,44.54772 -35.35534,50.20458 -2.82842,5.65685 -19.09188,43.84062 -19.09188,43.84062 l -56.56854,5.65685 z"
       id="path5716"
       inkscape:connector-curvature="0" />
  </g>
</svg>
