<?xml version="1.0" encoding="UTF-8" standalone="no"?>
<!-- Created with Inkscape (http://www.inkscape.org/) -->

<svg
   xmlns:dc="http://purl.org/dc/elements/1.1/"
   xmlns:cc="http://creativecommons.org/ns#"
   xmlns:rdf="http://www.w3.org/1999/02/22-rdf-syntax-ns#"
   xmlns:svg="http://www.w3.org/2000/svg"
   xmlns="http://www.w3.org/2000/svg"
   xmlns:sodipodi="http://sodipodi.sourceforge.net/DTD/sodipodi-0.dtd"
   xmlns:inkscape="http://www.inkscape.org/namespaces/inkscape"
   width="744.09448819"
   height="1052.3622047"
   id="svg2"
   version="1.1"
   inkscape:version="0.47 r22583"
   sodipodi:docname="circles.eps">
  <defs
     id="defs4">
    <inkscape:perspective
       sodipodi:type="inkscape:persp3d"
       inkscape:vp_x="0 : 526.18109 : 1"
       inkscape:vp_y="0 : 1000 : 0"
       inkscape:vp_z="744.09448 : 526.18109 : 1"
       inkscape:persp3d-origin="372.04724 : 350.78739 : 1"
       id="perspective2858" />
  </defs>
  <sodipodi:namedview
     id="base"
     pagecolor="#ffffff"
     bordercolor="#666666"
     borderopacity="1.0"
     inkscape:pageopacity="0.0"
     inkscape:pageshadow="2"
     inkscape:zoom="1.4"
     inkscape:cx="318.78602"
     inkscape:cy="797.72615"
     inkscape:document-units="px"
     inkscape:current-layer="layer1"
     showgrid="false"
     inkscape:window-width="1680"
     inkscape:window-height="1024"
     inkscape:window-x="-4"
     inkscape:window-y="-4"
     inkscape:window-maximized="1" />
  <metadata
     id="metadata7">
    <rdf:RDF>
      <cc:Work
         rdf:about="">
        <dc:format>image/svg+xml</dc:format>
        <dc:type
           rdf:resource="http://purl.org/dc/dcmitype/StillImage" />
        <dc:title></dc:title>
      </cc:Work>
    </rdf:RDF>
  </metadata>
  <g
     inkscape:label="Layer 1"
     inkscape:groupmode="layer"
     id="layer1">
    <g
       id="g3673"
       transform="matrix(0.94341708,0,0,0.94341689,-62.028499,-218.51852)">
      <path
         id="path2828"
         d="m 457.51351,437.03824 c 0,26.49986 -21.48238,47.98225 -47.98225,47.98225 -26.49986,0 -47.98223,-21.48239 -47.98223,-47.98225 0,-26.49986 21.48237,-47.98224 47.98223,-47.98224 26.49987,0 47.98225,21.48238 47.98225,47.98224 z"
         style="fill:none;stroke:#000000;stroke-width:10.59976673;stroke-linecap:butt;stroke-linejoin:miter;stroke-opacity:1" />
      <path
         style="fill:none;stroke:#000000;stroke-width:10.59976673;stroke-linecap:butt;stroke-linejoin:miter;stroke-miterlimit:4;stroke-opacity:1;stroke-dasharray:none;stroke-dashoffset:0"
         d="m 420.62191,437.03822 c 0,6.1252 -4.96545,11.09066 -11.09065,11.09066 -6.1252,0 -11.09066,-4.96546 -11.09066,-11.09066 0,-6.12519 4.96546,-11.09064 11.09066,-11.09064 6.1252,0 11.09065,4.96545 11.09065,11.09064 z"
         id="path2867" />
      <path
         style="fill:none;stroke:#000000;stroke-width:3.17993021;stroke-linecap:butt;stroke-linejoin:miter;stroke-opacity:1"
         d="m 439.90766,437.03827 c 0,16.77642 -13.59997,30.37638 -30.37638,30.37638 -16.77639,0 -30.37636,-13.59996 -30.37636,-30.37638 0,-16.77639 13.59997,-30.37635 30.37636,-30.37635 16.77641,0 30.37638,13.59996 30.37638,30.37635 z"
         id="path2871" />
    </g>
    <g
       id="g3676"
       transform="matrix(1.0313054,0,0,1.0313054,-314.50873,-495.23852)"
       inkscape:export-filename="E:\My Documents\_Graphics\Inkscape\Brushes\g3676.png"
       inkscape:export-xdpi="500"
       inkscape:export-ydpi="500">
      <path
         id="path2828-1"
         d="m 445.83939,555.21933 c 0,26.49986 -21.48239,47.98224 -47.98225,47.98224 -26.49986,0 -47.98224,-21.48238 -47.98224,-47.98224 0,-26.49987 21.48238,-47.98225 47.98224,-47.98225 26.49986,0 47.98225,21.48238 47.98225,47.98225 z"
         style="fill:none;stroke:#000000;stroke-width:0.9696449px;stroke-linecap:butt;stroke-linejoin:miter;stroke-opacity:1" />
      <path
         style="fill:none;stroke:#000000;stroke-width:1.93928981;stroke-linecap:butt;stroke-linejoin:miter;stroke-miterlimit:4;stroke-opacity:1;stroke-dasharray:none"
         d="m 422.51921,555.21931 c 0,13.62049 -11.04159,24.66208 -24.66208,24.66208 -13.62049,0 -24.66208,-11.04159 -24.66208,-24.66208 0,-13.62049 11.04159,-24.66208 24.66208,-24.66208 13.62049,0 24.66208,11.04159 24.66208,24.66208 z"
         id="path2867-7" />
      <path
         id="path2869-4"
         d="m 428.9478,555.21934 c 0,17.17089 -13.91977,31.09065 -31.09066,31.09065 -17.17088,0 -31.09065,-13.91976 -31.09065,-31.09065 0,-17.17089 13.91977,-31.09065 31.09065,-31.09065 17.17089,0 31.09066,13.91976 31.09066,31.09065 z"
         style="fill:none;stroke:#000000;stroke-width:3.87857962;stroke-linecap:butt;stroke-linejoin:miter;stroke-opacity:1" />
      <path
         style="fill:none;stroke:#000000;stroke-width:5.81786966;stroke-linecap:butt;stroke-linejoin:miter;stroke-opacity:1"
         d="m 441.09065,555.21932 c 0,23.87721 -19.35632,43.23351 -43.23352,43.23351 -23.87719,0 -43.2335,-19.3563 -43.2335,-43.23351 0,-23.8772 19.35631,-43.2335 43.2335,-43.2335 23.8772,0 43.23352,19.3563 43.23352,43.2335 z"
         id="path2871-0" />
    </g>
    <g
       id="g3690"
       transform="matrix(0.98042665,0,0,0.98042648,-71.696367,-414.14911)">
      <path
         transform="matrix(0.71969696,0,0,0.71969696,67.106275,127.07306)"
         style="fill:none;stroke:#000000;stroke-width:8.50328064;stroke-linecap:butt;stroke-linejoin:miter;stroke-opacity:1"
         d="m 372.7463,520.01178 c 0,36.82086 -29.84921,66.67007 -66.67007,66.67007 -36.82086,0 -66.67006,-29.84921 -66.67006,-66.67007 0,-36.82086 29.8492,-66.67007 66.67006,-66.67007 36.82086,0 66.67007,29.84921 66.67007,66.67007 z"
         id="path3682" />
      <path
         id="path3684"
         d="m 304.19334,501.32394 c 0,9.28111 -7.52383,16.80494 -16.80494,16.80494 -9.28111,0 -16.80494,-7.52383 -16.80494,-16.80494 0,-9.28111 7.52383,-16.80493 16.80494,-16.80493 9.28111,0 16.80494,7.52382 16.80494,16.80493 z"
         style="fill:#000000;stroke:#000000;stroke-width:2.03992844;stroke-linecap:butt;stroke-linejoin:miter;stroke-miterlimit:4;stroke-opacity:1;stroke-dasharray:none" />
      <path
         style="fill:none;stroke:#000000;stroke-width:2.03992844;stroke-linecap:butt;stroke-linejoin:miter;stroke-opacity:1"
         d="m 318.47907,501.32397 c 0,17.17089 -13.91977,31.09065 -31.09066,31.09065 -17.17088,0 -31.09065,-13.91976 -31.09065,-31.09065 0,-17.17089 13.91977,-31.09065 31.09065,-31.09065 17.17089,0 31.09066,13.91976 31.09066,31.09065 z"
         id="path3686" />
      <path
         id="path3688"
         d="m 324.90763,501.32395 c 0,20.7213 -16.79794,37.51923 -37.51923,37.51923 -20.72128,0 -37.51921,-16.79793 -37.51921,-37.51923 0,-20.72129 16.79793,-37.51921 37.51921,-37.51921 20.72129,0 37.51923,16.79792 37.51923,37.51921 z"
         style="fill:none;stroke:#000000;stroke-width:1.01996422;stroke-linecap:butt;stroke-linejoin:miter;stroke-opacity:1" />
    </g>
    <g
       id="g3727"
       transform="matrix(0.98042671,0,0,0.98042652,134.5477,-352.13961)">
      <path
         id="path2828-9"
         d="m 241.55367,438.07647 c 0,26.49986 -21.48238,47.98224 -47.98224,47.98224 -26.49987,0 -47.98224,-21.48238 -47.98224,-47.98224 0,-26.49986 21.48237,-47.98225 47.98224,-47.98225 26.49986,0 47.98224,21.48239 47.98224,47.98225 z"
         style="fill:none;stroke:#000000;stroke-width:6.11978483;stroke-linecap:butt;stroke-linejoin:miter;stroke-opacity:1" />
      <path
         style="fill:#000000;stroke:#000000;stroke-width:2.0399282;stroke-linecap:butt;stroke-linejoin:miter;stroke-miterlimit:4;stroke-opacity:1;stroke-dasharray:none"
         d="m 218.94779,438.07644 c 0,14.01498 -11.36139,25.37637 -25.37637,25.37637 -14.01498,0 -25.37637,-11.36139 -25.37637,-25.37637 0,-14.01498 11.36139,-25.37635 25.37637,-25.37635 14.01498,0 25.37637,11.36137 25.37637,25.37635 z"
         id="path2867-4" />
      <path
         id="path2869-8"
         d="m 224.66209,438.07648 c 0,17.17089 -13.91977,31.09065 -31.09066,31.09065 -17.17088,0 -31.09065,-13.91976 -31.09065,-31.09065 0,-17.17089 13.91977,-31.09065 31.09065,-31.09065 17.17089,0 31.09066,13.91976 31.09066,31.09065 z"
         style="fill:none;stroke:#000000;stroke-width:2.0399282;stroke-linecap:butt;stroke-linejoin:miter;stroke-opacity:1" />
      <path
         style="fill:none;stroke:#000000;stroke-width:1.0199641;stroke-linecap:butt;stroke-linejoin:miter;stroke-opacity:1"
         d="m 235.37637,438.07647 c 0,23.08824 -18.71672,41.80495 -41.80494,41.80495 -23.08822,0 -41.80493,-18.71671 -41.80493,-41.80495 0,-23.08822 18.71671,-41.80492 41.80493,-41.80492 23.08822,0 41.80494,18.7167 41.80494,41.80492 z"
         id="path2871-8" />
    </g>
    <g
       id="g3678"
       transform="matrix(1.0000421,0,0,1.000042,-80.713872,-252.15671)">
      <path
         id="path2828-2"
         d="m 567.26796,329.50504 c 0,26.49986 -21.48239,47.98224 -47.98225,47.98224 -26.49986,0 -47.98224,-21.48238 -47.98224,-47.98224 0,-26.49987 21.48238,-47.98225 47.98224,-47.98225 26.49986,0 47.98225,21.48238 47.98225,47.98225 z"
         style="fill:none;stroke:#000000;stroke-width:3.99983168;stroke-linecap:butt;stroke-linejoin:miter;stroke-opacity:1" />
      <path
         style="fill:none;stroke:#000000;stroke-width:1.99991584;stroke-linecap:butt;stroke-linejoin:miter;stroke-miterlimit:4;stroke-opacity:1;stroke-dasharray:none"
         d="m 530.37636,329.50501 c 0,6.1252 -4.96545,11.09066 -11.09065,11.09066 -6.1252,0 -11.09066,-4.96546 -11.09066,-11.09066 0,-6.12519 4.96546,-11.09064 11.09066,-11.09064 6.1252,0 11.09065,4.96545 11.09065,11.09064 z"
         id="path2867-45" />
      <path
         id="path2869-5"
         d="m 550.37638,329.50505 c 0,17.17089 -13.91977,31.09065 -31.09066,31.09065 -17.17088,0 -31.09065,-13.91976 -31.09065,-31.09065 0,-17.17089 13.91977,-31.09065 31.09065,-31.09065 17.17089,0 31.09066,13.91976 31.09066,31.09065 z"
         style="fill:none;stroke:#000000;stroke-width:5.99974775;stroke-linecap:butt;stroke-linejoin:miter;stroke-miterlimit:4;stroke-opacity:1;stroke-dasharray:11.99949524, 3.99983175;stroke-dashoffset:0" />
      <path
         style="fill:none;stroke:#000000;stroke-width:1.99991584;stroke-linecap:butt;stroke-linejoin:miter;stroke-opacity:1"
         d="m 556.80494,329.50504 c 0,20.7213 -16.79793,37.51923 -37.51922,37.51923 -20.72129,0 -37.51922,-16.79793 -37.51922,-37.51923 0,-20.72129 16.79793,-37.51921 37.51922,-37.51921 20.72129,0 37.51922,16.79792 37.51922,37.51921 z"
         id="path2871-1" />
      <path
         id="path3764"
         d="m 536.80495,329.505 c 0,9.67561 -7.84362,17.51924 -17.51922,17.51924 -9.6756,0 -17.51923,-7.84363 -17.51923,-17.51924 0,-9.67558 7.84363,-17.5192 17.51923,-17.5192 9.6756,0 17.51922,7.84362 17.51922,17.5192 z"
         style="fill:none;stroke:#000000;stroke-width:1.99991584;stroke-linecap:butt;stroke-linejoin:miter;stroke-miterlimit:4;stroke-opacity:1;stroke-dasharray:none" />
    </g>
    <g
       id="g3802"
       transform="matrix(1.0204586,0,0,1.0204584,149.77599,-506.70963)">
      <path
         id="path2828-7"
         d="m 442.98224,572.36218 c 0,26.49986 -21.48238,47.98225 -47.98224,47.98225 -26.49986,0 -47.98224,-21.48239 -47.98224,-47.98225 0,-26.49986 21.48238,-47.98224 47.98224,-47.98224 26.49986,0 47.98224,21.48238 47.98224,47.98224 z"
         style="fill:none;stroke:#000000;stroke-width:1.95990324;stroke-linecap:butt;stroke-linejoin:miter;stroke-opacity:1" />
      <path
         style="fill:none;stroke:#000000;stroke-width:1.95990324;stroke-linecap:butt;stroke-linejoin:miter;stroke-miterlimit:4;stroke-opacity:1;stroke-dasharray:3.9198065, 1.95990325, 0.97995162, 1.95990325;stroke-dashoffset:0"
         d="m 406.09064,572.36215 c 0,6.1252 -4.96545,11.09066 -11.09065,11.09066 -6.1252,0 -11.09066,-4.96546 -11.09066,-11.09066 0,-6.12519 4.96546,-11.09064 11.09066,-11.09064 6.1252,0 11.09065,4.96545 11.09065,11.09064 z"
         id="path2867-1" />
      <path
         id="path2869-1"
         d="m 426.09066,572.36219 c 0,17.17089 -13.91977,31.09065 -31.09066,31.09065 -17.17088,0 -31.09065,-13.91976 -31.09065,-31.09065 0,-17.17089 13.91977,-31.09065 31.09065,-31.09065 17.17089,0 31.09066,13.91976 31.09066,31.09065 z"
         style="fill:none;stroke:#000000;stroke-width:1.95990324;stroke-linecap:butt;stroke-linejoin:miter;stroke-miterlimit:4;stroke-opacity:1;stroke-dasharray:11.75941949, 3.9198065;stroke-dashoffset:0" />
      <path
         style="fill:none;stroke:#000000;stroke-width:2.9398551;stroke-linecap:butt;stroke-linejoin:miter;stroke-opacity:1"
         d="m 438.94781,572.3622 c 0,24.27171 -19.6761,43.94781 -43.9478,43.94781 -24.27169,0 -43.94779,-19.6761 -43.94779,-43.94781 0,-24.27169 19.6761,-43.94777 43.94779,-43.94777 24.2717,0 43.9478,19.67608 43.9478,43.94777 z"
         id="path2871-5" />
      <path
         id="path3766-2"
         d="m 419.66206,572.36215 c 0,13.62049 -11.04158,24.66209 -24.66207,24.66209 -13.62049,0 -24.66209,-11.0416 -24.66209,-24.66209 0,-13.62047 11.0416,-24.66205 24.66209,-24.66205 13.62049,0 24.66207,11.04158 24.66207,24.66205 z"
         style="fill:none;stroke:#000000;stroke-width:3.91980648;stroke-linecap:butt;stroke-linejoin:miter;stroke-miterlimit:4;stroke-opacity:1;stroke-dasharray:31.35845196, 7.83961299, 3.9198065, 7.83961299;stroke-dashoffset:0" />
    </g>
    <g
       id="g3819"
       transform="matrix(1.0204586,0,0,1.0204584,-197.46448,-317.7895)">
      <path
         transform="matrix(0.71969696,0,0,0.71969696,67.106275,127.07306)"
         style="fill:none;stroke:#000000;stroke-width:2.72323418;stroke-linecap:butt;stroke-linejoin:miter;stroke-opacity:1"
         d="m 372.7463,520.01178 c 0,36.82086 -29.84921,66.67007 -66.67007,66.67007 -36.82086,0 -66.67006,-29.84921 -66.67006,-66.67007 0,-36.82086 29.8492,-66.67007 66.67006,-66.67007 36.82086,0 66.67007,29.84921 66.67007,66.67007 z"
         id="path3809" />
      <path
         id="path3811"
         d="m 298.47905,501.32393 c 0,6.1252 -4.96545,11.09066 -11.09065,11.09066 -6.1252,0 -11.09066,-4.96546 -11.09066,-11.09066 0,-6.12519 4.96546,-11.09064 11.09066,-11.09064 6.1252,0 11.09065,4.96545 11.09065,11.09064 z"
         style="fill:#000000;stroke:#000000;stroke-width:5.8797102;stroke-linecap:butt;stroke-linejoin:miter;stroke-miterlimit:4;stroke-opacity:1;stroke-dasharray:3.91980669, 1.95990334, 0.97995167, 1.95990334;stroke-dashoffset:0" />
      <path
         style="fill:none;stroke:#000000;stroke-width:1.95990336;stroke-linecap:butt;stroke-linejoin:miter;stroke-miterlimit:4;stroke-opacity:1;stroke-dasharray:1.95990334, 3.91980669;stroke-dashoffset:0"
         d="m 318.47907,501.32397 c 0,17.17089 -13.91977,31.09065 -31.09066,31.09065 -17.17088,0 -31.09065,-13.91976 -31.09065,-31.09065 0,-17.17089 13.91977,-31.09065 31.09065,-31.09065 17.17089,0 31.09066,13.91976 31.09066,31.09065 z"
         id="path3813" />
      <path
         id="path3815"
         d="m 328.47908,501.32398 c 0,22.69375 -18.39692,41.09067 -41.09066,41.09067 -22.69373,0 -41.09065,-18.39692 -41.09065,-41.09067 0,-22.69373 18.39692,-41.09064 41.09065,-41.09064 22.69374,0 41.09066,18.39691 41.09066,41.09064 z"
         style="fill:none;stroke:#000000;stroke-width:2.93985534;stroke-linecap:butt;stroke-linejoin:miter;stroke-opacity:1" />
      <path
         style="fill:none;stroke:#000000;stroke-width:3.91980672;stroke-linecap:butt;stroke-linejoin:miter;stroke-miterlimit:4;stroke-opacity:1;stroke-dasharray:none;stroke-dashoffset:0"
         d="m 312.05047,501.32393 c 0,13.62049 -11.04158,24.66209 -24.66207,24.66209 -13.62049,0 -24.66209,-11.0416 -24.66209,-24.66209 0,-13.62047 11.0416,-24.66205 24.66209,-24.66205 13.62049,0 24.66207,11.04158 24.66207,24.66205 z"
         id="path3817" />
    </g>
    <g
       id="g3836"
       transform="translate(-90.000003,18.571429)" />
    <g
       id="g2880"
       transform="matrix(1.0309826,0,0,1.0309825,-90.3909,-256.3856)">
      <path
         style="fill:none;stroke:#000000;stroke-width:0.96994853px;stroke-linecap:butt;stroke-linejoin:miter;stroke-opacity:1"
         d="m 339.41082,436.6479 c 0,26.49986 -21.48239,47.98224 -47.98225,47.98224 -26.49986,0 -47.98224,-21.48238 -47.98224,-47.98224 0,-26.49987 21.48238,-47.98225 47.98224,-47.98225 26.49986,0 47.98225,21.48238 47.98225,47.98225 z"
         id="path2862" />
      <path
         id="path2864"
         d="m 316.09064,436.64788 c 0,13.62049 -11.04159,24.66208 -24.66208,24.66208 -13.62049,0 -24.66208,-11.04159 -24.66208,-24.66208 0,-13.62049 11.04159,-24.66208 24.66208,-24.66208 13.62049,0 24.66208,11.04159 24.66208,24.66208 z"
         style="fill:#000000;stroke:#000000;stroke-width:1.93989706;stroke-linecap:butt;stroke-linejoin:miter;stroke-miterlimit:4;stroke-opacity:1;stroke-dasharray:none" />
      <path
         id="path2868"
         d="m 331.09065,436.64789 c 0,21.90476 -17.75733,39.66208 -39.66209,39.66208 -21.90475,0 -39.66207,-17.75732 -39.66207,-39.66208 0,-21.90475 17.75732,-39.66207 39.66207,-39.66207 21.90476,0 39.66209,17.75732 39.66209,39.66207 z"
         style="fill:none;stroke:#000000;stroke-width:5.81969118;stroke-linecap:butt;stroke-linejoin:miter;stroke-opacity:1" />
    </g>
    <g
       id="g2891"
       transform="matrix(1.057468,0,0,1.0574679,-122.61967,-274.7484)">
      <path
         id="path2874"
         d="m 572.98224,443.07647 c 0,23.34395 -18.92401,42.26795 -42.26796,42.26795 -23.34395,0 -42.26795,-18.924 -42.26795,-42.26795 0,-23.34396 18.924,-42.26796 42.26795,-42.26796 23.34395,0 42.26796,18.924 42.26796,42.26796 z"
         style="fill:none;stroke:#000000;stroke-width:9.45655155;stroke-linecap:butt;stroke-linejoin:miter;stroke-opacity:1" />
      <path
         style="fill:#000000;stroke:#000000;stroke-width:1.89131033;stroke-linecap:butt;stroke-linejoin:miter;stroke-miterlimit:4;stroke-opacity:1;stroke-dasharray:none"
         d="m 548.2335,443.07645 c 0,9.6756 -7.84363,17.51922 -17.51923,17.51922 -9.6756,0 -17.51922,-7.84362 -17.51922,-17.51922 0,-9.6756 7.84362,-17.51922 17.51922,-17.51922 9.6756,0 17.51923,7.84362 17.51923,17.51922 z"
         id="path2876" />
      <path
         style="fill:none;stroke:#000000;stroke-width:5.67393112;stroke-linecap:butt;stroke-linejoin:miter;stroke-opacity:1"
         d="m 556.80493,443.07646 c 0,14.40947 -11.68119,26.09065 -26.09066,26.09065 -14.40946,0 -26.09064,-11.68118 -26.09064,-26.09065 0,-14.40946 11.68118,-26.09064 26.09064,-26.09064 14.40947,0 26.09066,11.68118 26.09066,26.09064 z"
         id="path2878" />
    </g>
    <g
       id="g3668"
       transform="matrix(1.1081795,0,0,1.1081794,-168.2511,-299.59214)">
      <path
         style="fill:none;stroke:#000000;stroke-width:5.41428518;stroke-linecap:butt;stroke-linejoin:miter;stroke-opacity:1"
         d="m 692.98224,445.21933 c 0,23.34395 -18.92401,42.26795 -42.26796,42.26795 -23.34395,0 -42.26795,-18.924 -42.26795,-42.26795 0,-23.34396 18.924,-42.26796 42.26795,-42.26796 23.34395,0 42.26796,18.924 42.26796,42.26796 z"
         id="path2885" />
      <path
         id="path2887"
         d="m 668.2335,445.21931 c 0,9.6756 -7.84363,17.51922 -17.51923,17.51922 -9.6756,0 -17.51922,-7.84362 -17.51922,-17.51922 0,-9.6756 7.84362,-17.51922 17.51922,-17.51922 9.6756,0 17.51923,7.84362 17.51923,17.51922 z"
         style="fill:#000000;stroke:#000000;stroke-width:1.80476189;stroke-linecap:butt;stroke-linejoin:miter;stroke-miterlimit:4;stroke-opacity:1;stroke-dasharray:none" />
      <path
         id="path2889"
         d="m 676.80493,445.21932 c 0,14.40947 -11.68119,26.09065 -26.09066,26.09065 -14.40946,0 -26.09064,-11.68118 -26.09064,-26.09065 0,-14.40946 11.68118,-26.09064 26.09064,-26.09064 14.40947,0 26.09066,11.68118 26.09066,26.09064 z"
         style="fill:none;stroke:#000000;stroke-width:5.41428518;stroke-linecap:butt;stroke-linejoin:miter;stroke-miterlimit:4;stroke-opacity:1;stroke-dasharray:2.70714269, 2.70714269;stroke-dashoffset:0" />
    </g>
  </g>
</svg>
